
<svg 
    width="46" 
    height="45" 
    viewBox="0 0 46 45" 
    fill="none" 
    xmlns="http://www.w3.org/2000/svg"
>
    <path 
        d="M4.10789 22.4966C4.19504 22.5786 4.27879 22.6675 4.37278 22.7375L4.49924 22.8486L4.58297 22.9204C4.7083 23.0275 4.83533 23.1317 4.96407 23.2331L5.06148 23.3083L5.20503 23.4177L5.25288 23.4536L5.4477 23.5971L5.47163 23.6142C5.55024 23.6706 5.62714 23.7253 5.70746 23.7851L5.91083 23.9201L5.99628 23.9765L6.15692 24.0774L6.22527 24.1184C6.27996 24.1526 6.33465 24.1867 6.39617 24.2175L6.5175 24.2893L6.6884 24.3867L6.79435 24.4448L6.89347 24.4978L7.03873 24.5747H7.05411V13.0888C7.05411 13.0632 7.05411 13.0393 7.05411 13.0136C7.05406 11.833 7.40413 10.6788 8.06004 9.69711C8.71596 8.7154 9.64827 7.95026 10.7391 7.49843C11.8298 7.0466 13.0301 6.92839 14.1881 7.15874C15.3461 7.38909 16.4097 7.95765 17.2446 8.79254V8.79254L19.1876 10.7356L21.4674 13.0153L25.4202 16.9681L26.032 17.5799V13.0119C26.032 11.4288 26.6609 9.91043 27.7803 8.79096C28.8998 7.67148 30.4181 7.04258 32.0013 7.04258C33.5845 7.04258 35.1028 7.67148 36.2223 8.79096C37.3417 9.91043 37.9707 11.4288 37.9707 13.0119H45.0115C45.0111 9.56079 43.6398 6.25116 41.1993 3.811C38.7588 1.37084 35.449 -2.97572e-08 31.9979 0H13.0149C10.4067 0.000182432 7.8588 0.784181 5.70167 2.25027C3.54454 3.71637 1.87779 5.79689 0.917653 8.22191C-0.042484 10.6469 -0.251688 13.3046 0.31718 15.8499C0.886048 18.3953 2.20673 20.711 4.10789 22.4966V22.4966Z" 
        fill="#4EA88A"
    />
    <path 
        d="M40.9088 22.4965C40.0306 21.6715 39.0419 20.9727 37.9711 20.4202V31.9846C37.9711 33.5678 37.3422 35.0861 36.2227 36.2056C35.1032 37.325 33.5849 37.954 32.0017 37.954H31.783C31.7146 37.954 31.6463 37.954 31.5796 37.942H31.5198C31.4326 37.942 31.3489 37.9266 31.2583 37.9164L31.1678 37.9044H31.1507L31.0584 37.8907C30.99 37.8805 30.9234 37.8685 30.8567 37.8548L30.773 37.8378L30.6124 37.8019L30.4876 37.7711L30.3611 37.7369C30.2672 37.7096 30.1732 37.6805 30.0809 37.6498L29.9783 37.6139L29.8758 37.5763L29.7733 37.537H29.7528L29.6724 37.5028C29.6417 37.4908 29.6109 37.4772 29.5802 37.4618L29.4964 37.4242L29.3905 37.3644L29.3136 37.3251C29.2589 37.2977 29.2042 37.2704 29.1427 37.2396C29.0811 37.2089 29.0658 37.1986 29.0299 37.1764L29.0077 37.1627L28.859 37.0739C28.8009 37.038 28.7428 37.0021 28.6881 36.9628L28.5719 36.8842L28.5018 36.8346L28.3736 36.7389C28.1604 36.5767 27.9582 36.4002 27.7687 36.2108L25.8239 34.2661L23.5459 31.988L19.5931 28.0352L18.9813 27.4234V31.8274C18.9813 31.8804 18.9813 31.9333 18.9813 31.988C18.9813 33.5712 18.3524 35.0895 17.2329 36.209C16.1134 37.3285 14.5951 37.9574 13.0119 37.9574C11.4287 37.9574 9.91042 37.3285 8.79095 36.209C7.67148 35.0895 7.04257 33.5712 7.04257 31.988H0C0 35.439 1.3709 38.7486 3.8111 41.1888C6.25131 43.629 9.56094 44.9999 13.0119 44.9999H31.9949C34.6051 45.0026 37.1558 44.2201 39.3156 42.7542C41.4753 41.2883 43.1442 39.2067 44.1055 36.78C45.0668 34.3532 45.276 31.6934 44.7059 29.1462C44.1358 26.5989 42.8128 24.282 40.9088 22.4965Z" 
        fill="#4EA88A"
    />
</svg>
