<svg width="143" height="146" viewBox="0 0 143 146" fill="none" xmlns="http://www.w3.org/2000/svg">
<g filter="url(#filter0_f_96_1250)">
<path d="M35.0033 63C35.2349 47.6417 47.6417 35.2349 63 35.0033V34.9967C47.6417 34.7651 35.2349 22.3583 35.0033 7H34.9967C34.7651 22.3583 22.3583 34.7651 7 34.9967V35.0033C22.3583 35.2349 34.7651 47.6417 34.9967 63H35.0033Z" fill="#DCF1EA"/>
</g>
<path d="M35.0033 63C35.2349 47.6417 47.6417 35.2349 63 35.0033V34.9967C47.6417 34.7651 35.2349 22.3583 35.0033 7H34.9967C34.7651 22.3583 22.3583 34.7651 7 34.9967V35.0033C22.3583 35.2349 34.7651 47.6417 34.9967 63H35.0033Z" fill="url(#paint0_linear_96_1250)"/>
<g filter="url(#filter1_f_96_1250)">
<path d="M85.5055 135C85.8901 109.494 106.494 88.8901 132 88.5055V88.4945C106.494 88.1099 85.8901 67.5057 85.5055 42H85.4945C85.1099 67.5057 64.5057 88.1099 39 88.4945V88.5055C64.5057 88.8901 85.1099 109.494 85.4945 135H85.5055Z" fill="#DCF1EA"/>
</g>
<path d="M85.5055 135C85.8901 109.494 106.494 88.8901 132 88.5055V88.4945C106.494 88.1099 85.8901 67.5057 85.5055 42H85.4945C85.1099 67.5057 64.5057 88.1099 39 88.4945V88.5055C64.5057 88.8901 85.1099 109.494 85.4945 135H85.5055Z" fill="url(#paint1_linear_96_1250)"/>
<defs>
<filter id="filter0_f_96_1250" x="0.777777" y="0.777777" width="68.4444" height="68.4444" filterUnits="userSpaceOnUse" color-interpolation-filters="sRGB">
<feFlood flood-opacity="0" result="BackgroundImageFix"/>
<feBlend mode="normal" in="SourceGraphic" in2="BackgroundImageFix" result="shape"/>
<feGaussianBlur stdDeviation="3.11111" result="effect1_foregroundBlur_96_1250"/>
</filter>
<filter id="filter1_f_96_1250" x="28.6667" y="31.6667" width="113.667" height="113.667" filterUnits="userSpaceOnUse" color-interpolation-filters="sRGB">
<feFlood flood-opacity="0" result="BackgroundImageFix"/>
<feBlend mode="normal" in="SourceGraphic" in2="BackgroundImageFix" result="shape"/>
<feGaussianBlur stdDeviation="5.16667" result="effect1_foregroundBlur_96_1250"/>
</filter>
<linearGradient id="paint0_linear_96_1250" x1="35" y1="7" x2="35" y2="63" gradientUnits="userSpaceOnUse">
<stop stop-color="#DCF1EA"/>
<stop offset="1" stop-color="#DCF1EA" stop-opacity="0"/>
</linearGradient>
<linearGradient id="paint1_linear_96_1250" x1="85.5" y1="42" x2="85.5" y2="135" gradientUnits="userSpaceOnUse">
<stop stop-color="#DCF1EA"/>
<stop offset="1" stop-color="#DCF1EA" stop-opacity="0"/>
</linearGradient>
</defs>
</svg>
