<svg width="498" height="685" viewBox="0 0 498 685" fill="none" xmlns="http://www.w3.org/2000/svg">
<g filter="url(#filter0_f_96_984)">
<circle cx="245.569" cy="172.324" r="141.788" fill="url(#paint0_linear_96_984)" fill-opacity="0.8"/>
</g>
<path d="M324.455 398.154C324.455 477.082 312.464 548.492 293.11 600.133C283.432 625.957 271.932 646.784 259.215 661.136C246.497 675.49 232.649 683.276 218.243 683.276C203.837 683.276 189.989 675.49 177.271 661.136C164.554 646.784 153.055 625.957 143.376 600.133C124.023 548.492 112.031 477.082 112.031 398.154C112.031 319.226 124.023 247.815 143.376 196.175C153.055 170.35 164.554 149.524 177.271 135.171C189.989 120.818 203.837 113.031 218.243 113.031C232.649 113.031 246.497 120.818 259.215 135.171C271.932 149.524 283.432 170.35 293.11 196.175C312.464 247.815 324.455 319.226 324.455 398.154Z" stroke="url(#paint1_linear_96_984)" stroke-width="2.06237"/>
<path d="M386.326 398.154C386.326 477.082 374.335 548.492 354.981 600.133C345.303 625.957 333.803 646.784 321.086 661.136C308.368 675.489 294.52 683.276 280.114 683.276C265.708 683.276 251.86 675.489 239.142 661.136C226.425 646.784 214.926 625.957 205.247 600.133C185.894 548.492 173.902 477.082 173.902 398.154C173.902 319.225 185.894 247.815 205.247 196.174C214.926 170.35 226.425 149.523 239.142 135.171C251.86 120.818 265.708 113.031 280.114 113.031C294.52 113.031 308.368 120.818 321.086 135.171C333.803 149.523 345.303 170.35 354.981 196.174C374.335 247.815 386.326 319.225 386.326 398.154Z" stroke="url(#paint2_linear_96_984)" stroke-width="2.06237"/>
<path d="M448.197 398.154C448.197 477.082 436.206 548.492 416.852 600.133C407.174 625.957 395.674 646.784 382.957 661.136C370.239 675.489 356.391 683.276 341.985 683.276C327.579 683.276 313.731 675.489 301.013 661.136C288.296 646.784 276.797 625.957 267.119 600.133C247.765 548.492 235.773 477.082 235.773 398.154C235.773 319.225 247.765 247.815 267.119 196.174C276.797 170.35 288.296 149.523 301.013 135.171C313.731 120.818 327.579 113.031 341.985 113.031C356.391 113.031 370.239 120.818 382.957 135.171C395.674 149.523 407.174 170.35 416.852 196.174C436.206 247.815 448.197 319.225 448.197 398.154Z" stroke="url(#paint3_linear_96_984)" stroke-width="2.06237"/>
<g filter="url(#filter1_f_96_984)">
<path d="M200.785 219.536C201.05 201.984 215.229 187.805 232.781 187.54V187.533C215.229 187.268 201.05 173.089 200.785 155.536H200.777C200.513 173.089 186.334 187.268 168.781 187.533V187.54C186.334 187.805 200.513 201.984 200.777 219.536H200.785Z" fill="#68D8B3"/>
</g>
<path d="M200.785 219.536C201.05 201.984 215.229 187.805 232.781 187.54V187.533C215.229 187.268 201.05 173.089 200.785 155.536H200.777C200.513 173.089 186.334 187.268 168.781 187.533V187.54C186.334 187.805 200.513 201.984 200.777 219.536H200.785Z" fill="url(#paint4_linear_96_984)"/>
<g filter="url(#filter2_f_96_984)">
<path d="M445.838 547.638C446.219 522.379 466.624 501.974 491.883 501.593V501.582C466.624 501.201 446.219 480.796 445.838 455.536H445.827C445.446 480.796 425.041 501.201 399.781 501.582V501.593C425.041 501.974 445.446 522.379 445.827 547.638H445.838Z" fill="#4ED5A8" fill-opacity="0.98"/>
</g>
<path d="M445.838 547.638C446.219 522.379 466.624 501.974 491.883 501.593V501.582C466.624 501.201 446.219 480.796 445.838 455.536H445.827C445.446 480.796 425.041 501.201 399.781 501.582V501.593C425.041 501.974 445.446 522.379 445.827 547.638H445.838Z" fill="url(#paint5_linear_96_984)" fill-opacity="0.38"/>
<defs>
<filter id="filter0_f_96_984" x="0.662819" y="-72.5821" width="489.813" height="489.813" filterUnits="userSpaceOnUse" color-interpolation-filters="sRGB">
<feFlood flood-opacity="0" result="BackgroundImageFix"/>
<feBlend mode="normal" in="SourceGraphic" in2="BackgroundImageFix" result="shape"/>
<feGaussianBlur stdDeviation="51.5592" result="effect1_foregroundBlur_96_984"/>
</filter>
<filter id="filter1_f_96_984" x="164.671" y="151.426" width="72.22" height="72.22" filterUnits="userSpaceOnUse" color-interpolation-filters="sRGB">
<feFlood flood-opacity="0" result="BackgroundImageFix"/>
<feBlend mode="normal" in="SourceGraphic" in2="BackgroundImageFix" result="shape"/>
<feGaussianBlur stdDeviation="2.055" result="effect1_foregroundBlur_96_984"/>
</filter>
<filter id="filter2_f_96_984" x="393.781" y="449.536" width="104.102" height="104.102" filterUnits="userSpaceOnUse" color-interpolation-filters="sRGB">
<feFlood flood-opacity="0" result="BackgroundImageFix"/>
<feBlend mode="normal" in="SourceGraphic" in2="BackgroundImageFix" result="shape"/>
<feGaussianBlur stdDeviation="3" result="effect1_foregroundBlur_96_984"/>
</filter>
<linearGradient id="paint0_linear_96_984" x1="161.528" y1="30.5364" x2="305.893" y2="271.833" gradientUnits="userSpaceOnUse">
<stop stop-color="#0D3125" stop-opacity="0.17"/>
<stop offset="1" stop-color="white" stop-opacity="0.5"/>
</linearGradient>
<linearGradient id="paint1_linear_96_984" x1="292.383" y1="175.934" x2="156.156" y2="614.798" gradientUnits="userSpaceOnUse">
<stop stop-color="#9AD1BF"/>
<stop offset="1" stop-color="#C4C4C4" stop-opacity="0.26"/>
</linearGradient>
<linearGradient id="paint2_linear_96_984" x1="354.254" y1="175.933" x2="218.027" y2="614.798" gradientUnits="userSpaceOnUse">
<stop stop-color="#9AD1BF"/>
<stop offset="1" stop-color="#C4C4C4" stop-opacity="0.26"/>
</linearGradient>
<linearGradient id="paint3_linear_96_984" x1="416.125" y1="175.933" x2="279.898" y2="614.798" gradientUnits="userSpaceOnUse">
<stop stop-color="#9AD1BF"/>
<stop offset="1" stop-color="#C4C4C4" stop-opacity="0.26"/>
</linearGradient>
<linearGradient id="paint4_linear_96_984" x1="200.781" y1="155.536" x2="200.781" y2="219.536" gradientUnits="userSpaceOnUse">
<stop stop-color="#DCF1EA"/>
<stop offset="1" stop-color="#DCF1EA" stop-opacity="0"/>
</linearGradient>
<linearGradient id="paint5_linear_96_984" x1="445.832" y1="455.536" x2="445.832" y2="547.638" gradientUnits="userSpaceOnUse">
<stop stop-color="#FDFDFD"/>
<stop offset="1" stop-color="#DCF1EA" stop-opacity="0"/>
</linearGradient>
</defs>
</svg>
