<svg width="185" height="49" viewBox="0 0 185 49" fill="none" xmlns="http://www.w3.org/2000/svg">
<g clip-path="url(#clip0_864_41)">
<path d="M4.91575 33.1136L17.9642 45.9133H1.50521C1.25039 45.9117 1.00002 45.8474 0.776917 45.7263C0.553813 45.6052 0.365062 45.431 0.22786 45.2198C0.099199 44.9911 0.03219 44.7338 0.0332147 44.4724C0.0405139 41.4487 0.0557212 34.8429 0.0605873 32.7485H4.03437C4.36566 32.7508 4.68256 32.882 4.91575 33.1136Z" fill="white"/>
<path d="M18.018 6.05969L1.18973e-07 23.664V7.59459C-0.000161287 7.18777 0.163914 6.79754 0.456148 6.50971C0.748381 6.22188 1.14485 6.06001 1.55837 6.05969H18.018Z" fill="white"/>
<path d="M40.4493 7.55557V44.3954C40.4493 45.2218 39.7924 45.913 38.9523 45.913H32.0054C31.6191 45.8531 31.2529 45.7227 30.9792 45.451L11.2715 25.8905L13.4843 23.7123H13.4424V23.6417L17.9435 19.2465V19.216L22.4447 14.8411V14.8106L26.885 10.4357V10.4051L30.9458 6.497C31.2389 6.21653 31.6317 6.05959 32.0406 6.05957H38.9523C39.1508 6.06003 39.3472 6.09921 39.5301 6.17484C39.7131 6.25047 39.879 6.36106 40.0182 6.50019C40.1574 6.63932 40.2672 6.80424 40.3412 6.98539C40.4152 7.16655 40.4519 7.36035 40.4493 7.55557Z" fill="white"/>
<path d="M43.2528 6.05957C43.6651 6.05957 44.0606 6.22071 44.3521 6.50755C44.6437 6.79439 44.8075 7.18343 44.8075 7.58908V41.2718L44.8488 44.3416C44.8516 44.5441 44.8134 44.7452 44.7365 44.9331C44.6596 45.1211 44.5455 45.2921 44.4009 45.4363C44.2562 45.5805 44.0839 45.6949 43.8939 45.7731C43.7039 45.8512 43.5 45.8914 43.2941 45.8914H32.0838C31.8784 45.8914 31.675 45.8514 31.4854 45.7737C31.2959 45.6959 31.1238 45.582 30.9792 45.4384L11.2715 25.8708L13.4843 23.6836H13.4637V23.6423L17.9417 19.2471V19.2166L22.4197 14.8417V14.8112L26.8978 10.4363V10.4057L30.9537 6.49819C31.2443 6.21812 31.635 6.06129 32.0419 6.06137H43.2552L43.2528 6.05957Z" fill="#535DD3"/>
<path d="M42.3811 6.81494C42.7778 6.81494 43.1583 6.96997 43.4388 7.24592C43.7193 7.52188 43.8768 7.89615 43.8768 8.2864V40.6939L43.9164 43.6476C43.919 43.8425 43.8823 44.036 43.8083 44.2168C43.7344 44.3976 43.6246 44.5621 43.4855 44.7009C43.3463 44.8396 43.1805 44.9498 42.9977 45.025C42.8149 45.1001 42.6188 45.1388 42.4207 45.1388H31.6349C31.4373 45.1389 31.2417 45.1004 31.0593 45.0256C30.8769 44.9508 30.7114 44.8413 30.5723 44.7032L30.5449 7.23502C30.8248 6.96609 31.2006 6.81572 31.5917 6.81614H42.3805L42.3811 6.81494Z" fill="white"/>
<path d="M41.82 6.81482C42.2167 6.81482 42.5971 6.96985 42.8776 7.2458C43.1581 7.52176 43.3157 7.89602 43.3157 8.28628V40.6938L43.3552 43.6475C43.3579 43.8424 43.3212 44.0359 43.2472 44.2167C43.1732 44.3975 43.0635 44.562 42.9243 44.7008C42.7851 44.8395 42.6194 44.9497 42.4366 45.0248C42.2538 45.1 42.0576 45.1387 41.8595 45.1387H34.1151C33.9175 45.1387 33.7219 45.1003 33.5395 45.0255C33.3571 44.9507 33.1916 44.8411 33.0525 44.7031H31.8359L33.0251 7.2349C33.3049 6.96597 33.6807 6.8156 34.0719 6.81602H41.8194L41.82 6.81482Z" fill="#535DD3"/>
<path d="M42.5651 43.6458C42.5687 43.8402 42.5328 44.0333 42.4597 44.2139C42.3865 44.3945 42.2774 44.5589 42.1389 44.6976C42.0004 44.8363 41.8352 44.9464 41.6529 45.0215C41.4706 45.0967 41.275 45.1353 41.0773 45.1352H30.6669L29.2575 43.7074L29.2168 8.18763L30.6158 6.83884H41.0378C41.2322 6.83669 41.4251 6.87265 41.6052 6.94464C41.7853 7.01664 41.949 7.12321 42.0867 7.25813C42.2245 7.39306 42.3336 7.55363 42.4076 7.73048C42.4816 7.90733 42.519 8.09692 42.5177 8.28816V40.6957L42.5651 43.6458Z" fill="white"/>
<path d="M40.4991 6.81494C40.8957 6.81494 41.2762 6.96997 41.5567 7.24592C41.8372 7.52188 41.9948 7.89615 41.9948 8.2864V40.6939L42.0343 43.6476C42.037 43.8425 42.0002 44.036 41.9263 44.2168C41.8523 44.3976 41.7425 44.5621 41.6034 44.7009C41.4642 44.8396 41.2984 44.9498 41.1157 45.025C40.9329 45.1001 40.7367 45.1388 40.5386 45.1388H32.7948C32.5972 45.1389 32.4016 45.1004 32.2192 45.0256C32.0368 44.9508 31.8712 44.8413 31.7322 44.7032H30.5156L31.7048 7.23502C31.9846 6.96609 32.3604 6.81572 32.7516 6.81614H40.4991V6.81494Z" fill="#535DD3"/>
<path d="M13.4973 23.6846V23.6953H13.4863L13.4973 23.6846Z" fill="black"/>
<path d="M18.018 6.05969L1.18973e-07 23.664V7.59459C-0.000161287 7.18777 0.163914 6.79754 0.456148 6.50971C0.748381 6.22188 1.14485 6.06001 1.55837 6.05969H18.018Z" fill="white"/>
<path d="M18.0185 45.9444L1.59962 46.0001C1.32017 46.0012 1.04557 45.9283 0.804576 45.7891C0.563582 45.65 0.365062 45.4496 0.229811 45.209C0.101192 44.9822 0.0341554 44.7267 0.0351675 44.467C0.0424667 41.4433 0.0576722 34.8429 0.0625383 32.7485H4.03632C4.36585 32.7472 4.68244 32.8746 4.91648 33.1028L17.965 45.893L18.0185 45.9444Z" fill="white"/>
<path d="M39.9942 44.3434C39.9977 44.6214 39.924 44.8951 39.7813 45.135V45.1392C39.6508 45.3593 39.4668 45.5442 39.2459 45.6772C39.025 45.8102 38.7741 45.8873 38.5155 45.9016C38.4887 45.9016 38.4546 45.913 38.4297 45.913H32.0843C32.0581 45.913 32.0326 45.9022 32.0064 45.9016C31.6186 45.8803 31.2527 45.7175 30.9803 45.445L30.6719 45.1392L30.6677 45.135L29.2291 43.7073L11.2695 25.8875L13.4824 23.7123H13.4435V23.6417L17.9446 19.2465V19.216L22.4458 14.8411V14.8106L26.8861 10.4357V10.4051L29.203 8.17551L30.6166 6.81475L30.9468 6.497C31.2399 6.21637 31.6328 6.0594 32.0417 6.05957H38.3871C38.66 6.06012 38.9282 6.12992 39.1657 6.2622C39.4032 6.39449 39.602 6.5848 39.7429 6.81475L39.7563 6.83749C39.8926 7.06589 39.9642 7.32603 39.9637 7.59087V41.2736L39.9942 44.3434Z" fill="white"/>
</g>
<path d="M69.318 25L64.126 18.18V25H60.364V9.556H64.126V16.332L69.274 9.556H73.696L67.712 17.124L73.916 25H69.318ZM89.0798 9.556V25H85.3178V18.642H79.4658V25H75.7038V9.556H79.4658V15.606H85.3178V9.556H89.0798ZM101.41 22.272H95.6456L94.7216 25H90.7836L96.3716 9.556H100.728L106.316 25H102.334L101.41 22.272ZM100.442 19.368L98.5276 13.714L96.6356 19.368H100.442ZM119.126 9.556V12.57H115.034V25H111.272V12.57H107.18V9.556H119.126ZM130.628 22.272H124.864L123.94 25H120.002L125.59 9.556H129.946L135.534 25H131.552L130.628 22.272ZM129.66 19.368L127.746 13.714L125.854 19.368H129.66ZM151.511 22.272H145.747L144.823 25H140.885L146.473 9.556H150.829L156.417 25H152.435L151.511 22.272ZM150.543 19.368L148.629 13.714L146.737 19.368H150.543ZM169.888 14.528C169.888 15.4227 169.683 16.244 169.272 16.992C168.861 17.7253 168.231 18.3193 167.38 18.774C166.529 19.2287 165.473 19.456 164.212 19.456H161.88V25H158.118V9.556H164.212C165.444 9.556 166.485 9.76867 167.336 10.194C168.187 10.6193 168.825 11.206 169.25 11.954C169.675 12.702 169.888 13.56 169.888 14.528ZM163.926 16.464C164.645 16.464 165.18 16.2953 165.532 15.958C165.884 15.6207 166.06 15.144 166.06 14.528C166.06 13.912 165.884 13.4353 165.532 13.098C165.18 12.7607 164.645 12.592 163.926 12.592H161.88V16.464H163.926ZM183.616 14.528C183.616 15.4227 183.411 16.244 183 16.992C182.59 17.7253 181.959 18.3193 181.108 18.774C180.258 19.2287 179.202 19.456 177.94 19.456H175.608V25H171.846V9.556H177.94C179.172 9.556 180.214 9.76867 181.064 10.194C181.915 10.6193 182.553 11.206 182.978 11.954C183.404 12.702 183.616 13.56 183.616 14.528ZM177.654 16.464C178.373 16.464 178.908 16.2953 179.26 15.958C179.612 15.6207 179.788 15.144 179.788 14.528C179.788 13.912 179.612 13.4353 179.26 13.098C178.908 12.7607 178.373 12.592 177.654 12.592H175.608V16.464H177.654Z" fill="white"/>
<path d="M68.408 34.696V43H67.316V36.808L64.556 43H63.788L61.016 36.796V43H59.924V34.696H61.1L64.172 41.56L67.244 34.696H68.408ZM79.1399 39.46C79.1399 39.668 79.1279 39.888 79.1039 40.12H73.8479C73.8879 40.768 74.1079 41.276 74.5079 41.644C74.9159 42.004 75.4079 42.184 75.9839 42.184C76.4559 42.184 76.8479 42.076 77.1599 41.86C77.4799 41.636 77.7039 41.34 77.8319 40.972H79.0079C78.8319 41.604 78.4799 42.12 77.9519 42.52C77.4239 42.912 76.7679 43.108 75.9839 43.108C75.3599 43.108 74.7999 42.968 74.3039 42.688C73.8159 42.408 73.4319 42.012 73.1519 41.5C72.8719 40.98 72.7319 40.38 72.7319 39.7C72.7319 39.02 72.8679 38.424 73.1399 37.912C73.4119 37.4 73.7919 37.008 74.2799 36.736C74.7759 36.456 75.3439 36.316 75.9839 36.316C76.6079 36.316 77.1599 36.452 77.6399 36.724C78.1199 36.996 78.4879 37.372 78.7439 37.852C79.0079 38.324 79.1399 38.86 79.1399 39.46ZM78.0119 39.232C78.0119 38.816 77.9199 38.46 77.7359 38.164C77.5519 37.86 77.2999 37.632 76.9799 37.48C76.6679 37.32 76.3199 37.24 75.9359 37.24C75.3839 37.24 74.9119 37.416 74.5199 37.768C74.1359 38.12 73.9159 38.608 73.8599 39.232H78.0119ZM84.5533 37.492C84.7453 37.116 85.0173 36.824 85.3693 36.616C85.7293 36.408 86.1653 36.304 86.6773 36.304V37.432H86.3893C85.1653 37.432 84.5533 38.096 84.5533 39.424V43H83.4613V36.424H84.5533V37.492ZM90.4099 39.7C90.4099 39.02 90.5459 38.428 90.8179 37.924C91.0899 37.412 91.4659 37.016 91.9459 36.736C92.4339 36.456 92.9899 36.316 93.6139 36.316C94.4219 36.316 95.0859 36.512 95.6059 36.904C96.1339 37.296 96.4819 37.84 96.6499 38.536H95.4739C95.3619 38.136 95.1419 37.82 94.8139 37.588C94.4939 37.356 94.0939 37.24 93.6139 37.24C92.9899 37.24 92.4859 37.456 92.1019 37.888C91.7179 38.312 91.5259 38.916 91.5259 39.7C91.5259 40.492 91.7179 41.104 92.1019 41.536C92.4859 41.968 92.9899 42.184 93.6139 42.184C94.0939 42.184 94.4939 42.072 94.8139 41.848C95.1339 41.624 95.3539 41.304 95.4739 40.888H96.6499C96.4739 41.56 96.1219 42.1 95.5939 42.508C95.0659 42.908 94.4059 43.108 93.6139 43.108C92.9899 43.108 92.4339 42.968 91.9459 42.688C91.4659 42.408 91.0899 42.012 90.8179 41.5C90.5459 40.988 90.4099 40.388 90.4099 39.7ZM104.251 36.304C104.747 36.304 105.195 36.412 105.595 36.628C105.995 36.836 106.307 37.152 106.531 37.576C106.763 38 106.879 38.516 106.879 39.124V43H105.799V39.28C105.799 38.624 105.635 38.124 105.307 37.78C104.979 37.428 104.531 37.252 103.963 37.252C103.387 37.252 102.927 37.432 102.583 37.792C102.247 38.152 102.079 38.676 102.079 39.364V43H100.987V34.12H102.079V37.36C102.295 37.024 102.591 36.764 102.967 36.58C103.351 36.396 103.779 36.304 104.251 36.304ZM111.135 39.688C111.135 39.016 111.271 38.428 111.543 37.924C111.815 37.412 112.187 37.016 112.659 36.736C113.139 36.456 113.671 36.316 114.255 36.316C114.831 36.316 115.331 36.44 115.755 36.688C116.179 36.936 116.495 37.248 116.703 37.624V36.424H117.807V43H116.703V41.776C116.487 42.16 116.163 42.48 115.731 42.736C115.307 42.984 114.811 43.108 114.243 43.108C113.659 43.108 113.131 42.964 112.659 42.676C112.187 42.388 111.815 41.984 111.543 41.464C111.271 40.944 111.135 40.352 111.135 39.688ZM116.703 39.7C116.703 39.204 116.603 38.772 116.403 38.404C116.203 38.036 115.931 37.756 115.587 37.564C115.251 37.364 114.879 37.264 114.471 37.264C114.063 37.264 113.691 37.36 113.355 37.552C113.019 37.744 112.751 38.024 112.551 38.392C112.351 38.76 112.251 39.192 112.251 39.688C112.251 40.192 112.351 40.632 112.551 41.008C112.751 41.376 113.019 41.66 113.355 41.86C113.691 42.052 114.063 42.148 114.471 42.148C114.879 42.148 115.251 42.052 115.587 41.86C115.931 41.66 116.203 41.376 116.403 41.008C116.603 40.632 116.703 40.196 116.703 39.7ZM125.736 36.304C126.536 36.304 127.184 36.548 127.68 37.036C128.176 37.516 128.424 38.212 128.424 39.124V43H127.344V39.28C127.344 38.624 127.18 38.124 126.852 37.78C126.524 37.428 126.076 37.252 125.508 37.252C124.932 37.252 124.472 37.432 124.128 37.792C123.792 38.152 123.624 38.676 123.624 39.364V43H122.532V36.424H123.624V37.36C123.84 37.024 124.132 36.764 124.5 36.58C124.876 36.396 125.288 36.304 125.736 36.304ZM134.42 37.324V41.2C134.42 41.52 134.488 41.748 134.624 41.884C134.76 42.012 134.996 42.076 135.332 42.076H136.136V43H135.152C134.544 43 134.088 42.86 133.784 42.58C133.48 42.3 133.328 41.84 133.328 41.2V37.324H132.476V36.424H133.328V34.768H134.42V36.424H136.136V37.324H134.42ZM151.362 41.14H147.714L147.042 43H145.89L148.914 34.684H150.174L153.186 43H152.034L151.362 41.14ZM151.05 40.252L149.538 36.028L148.026 40.252H151.05ZM158.476 37.636C158.692 37.26 159.012 36.948 159.436 36.7C159.868 36.444 160.368 36.316 160.936 36.316C161.52 36.316 162.048 36.456 162.52 36.736C163 37.016 163.376 37.412 163.648 37.924C163.92 38.428 164.056 39.016 164.056 39.688C164.056 40.352 163.92 40.944 163.648 41.464C163.376 41.984 163 42.388 162.52 42.676C162.048 42.964 161.52 43.108 160.936 43.108C160.376 43.108 159.88 42.984 159.448 42.736C159.024 42.48 158.7 42.164 158.476 41.788V46.12H157.384V36.424H158.476V37.636ZM162.94 39.688C162.94 39.192 162.84 38.76 162.64 38.392C162.44 38.024 162.168 37.744 161.824 37.552C161.488 37.36 161.116 37.264 160.708 37.264C160.308 37.264 159.936 37.364 159.592 37.564C159.256 37.756 158.984 38.04 158.776 38.416C158.576 38.784 158.476 39.212 158.476 39.7C158.476 40.196 158.576 40.632 158.776 41.008C158.984 41.376 159.256 41.66 159.592 41.86C159.936 42.052 160.308 42.148 160.708 42.148C161.116 42.148 161.488 42.052 161.824 41.86C162.168 41.66 162.44 41.376 162.64 41.008C162.84 40.632 162.94 40.192 162.94 39.688ZM169.466 37.636C169.682 37.26 170.002 36.948 170.426 36.7C170.858 36.444 171.358 36.316 171.926 36.316C172.51 36.316 173.038 36.456 173.51 36.736C173.99 37.016 174.366 37.412 174.638 37.924C174.91 38.428 175.046 39.016 175.046 39.688C175.046 40.352 174.91 40.944 174.638 41.464C174.366 41.984 173.99 42.388 173.51 42.676C173.038 42.964 172.51 43.108 171.926 43.108C171.366 43.108 170.87 42.984 170.438 42.736C170.014 42.48 169.69 42.164 169.466 41.788V46.12H168.374V36.424H169.466V37.636ZM173.93 39.688C173.93 39.192 173.83 38.76 173.63 38.392C173.43 38.024 173.158 37.744 172.814 37.552C172.478 37.36 172.106 37.264 171.698 37.264C171.298 37.264 170.926 37.364 170.582 37.564C170.246 37.756 169.974 38.04 169.766 38.416C169.566 38.784 169.466 39.212 169.466 39.7C169.466 40.196 169.566 40.632 169.766 41.008C169.974 41.376 170.246 41.66 170.582 41.86C170.926 42.052 171.298 42.148 171.698 42.148C172.106 42.148 172.478 42.052 172.814 41.86C173.158 41.66 173.43 41.376 173.63 41.008C173.83 40.632 173.93 40.192 173.93 39.688Z" fill="white"/>
<defs>
<clipPath id="clip0_864_41">
<rect width="44.8485" height="40" fill="white" transform="translate(0 6)"/>
</clipPath>
</defs>
</svg>
